<svg xmlns="http://www.w3.org/2000/svg" width="725" height="774" viewBox="0 0 725 774">
    <defs>
        <linearGradient id="a" x1="50%" x2="21.194%" y1="10.686%" y2="36.036%">
            <stop offset="0%" stop-color="#11669C"/>
            <stop offset="100%" stop-color="#073663"/>
        </linearGradient>
    </defs>
    <path fill="url(#a)" fill-rule="nonzero" d="M930.544 19.61c76.535 47.993 56.01 198.37 65.75 331.295 9.393 133.216 49.052 248.69 12.524 351.656-36.528 102.966-149.59 192.843-271.351 204.187-121.413 11.343-251.522-56.137-326.318-130.89-74.448-74.752-93.233-157.066-157.245-228.037C190.241 476.85 81.353 416.93 30.91 315.71-19.534 214.199-11.185 71.094 77.874 25.137c89.059-45.956 258.827 4.945 430.683 3.2S854.01-28.382 930.544 19.61z" transform="matrix(-1 0 0 1 725 -134)"/>
</svg>
