<svg xmlns="http://www.w3.org/2000/svg" width="320" height="255" viewBox="0 0 320 255">
    <defs>
        <linearGradient id="a" x1="50%" x2="21.194%" y1="30.894%" y2="43.214%">
            <stop offset="0%" stop-color="#11669C"/>
            <stop offset="100%" stop-color="#073663"/>
        </linearGradient>
    </defs>
    <path fill="url(#a)" fill-rule="nonzero" d="M580.681 8.531c47.76 20.878 34.952 86.295 41.03 144.12 5.861 57.952 30.61 108.186 7.815 152.978-22.794 44.793-93.348 83.891-169.33 88.826-75.764 4.935-156.955-24.42-203.63-56.94-46.456-32.518-58.18-68.327-98.124-99.2-39.727-30.875-107.676-56.94-139.154-100.974C-12.19 93.181-6.98 30.927 48.595 10.935c55.575-19.992 161.515 2.151 268.757 1.392 107.242-.76 215.57-24.674 263.33-3.796z" transform="matrix(-1 0 0 1 502 -140)"/>
</svg>
